<svg width="150" height="90" viewBox="0 0 150 90" fill="none" xmlns="http://www.w3.org/2000/svg">
<g clip-path="url(#clip0_1_10413)">
<path d="M24.7104 75.1013C24.7104 74.9276 24.8146 74.8582 25.1446 74.7714C25.9086 74.5804 26.2559 74.1636 26.2559 73.4169V64.5611C26.2559 64.0054 25.9086 63.6234 25.2314 63.4324C24.8494 63.3108 24.7278 63.2066 24.7278 63.0156V62.5121C24.7278 62.3558 24.8841 62.1821 25.0404 62.1821H34.7996C40.1654 62.1821 44.1941 65.2209 44.1941 69.2495C44.1941 70.9859 43.4648 72.6355 42.1798 73.8163C41.2421 74.6845 40.096 75.2576 38.7067 75.5875C37.5259 75.9 36.0846 76.039 35.199 75.9695L29.6942 76.1952C27.9056 76.1779 26.3428 76.0911 24.9709 75.9695C24.8146 75.9521 24.7104 75.8653 24.7104 75.7959V75.0839V75.1013ZM30.4236 74.5977H33.2194C35.4247 74.5977 36.8139 74.1983 37.8038 73.2606C38.8109 72.323 39.3666 70.7775 39.3666 68.9022C39.3666 65.4293 37.4912 63.5539 34.0182 63.5539H30.4236V74.5977Z" fill="#0093B1"/>
<path d="M53.1896 75.6569C53.1896 75.8653 53.0854 75.9869 52.8597 75.9869H46.2262C46.0005 75.9869 45.9136 75.848 45.9136 75.5354V75.2576C45.9136 74.9971 46.0005 74.8929 46.3825 74.7714C47.2855 74.5109 47.4939 74.1636 47.4939 73.1044V64.7347C47.4939 64.0054 47.1987 63.606 46.4346 63.3803C46.0005 63.2414 45.8789 63.1372 45.8789 62.842V62.4947C45.8789 62.3384 46.0352 62.1821 46.1915 62.1821H52.8771C53.0681 62.1821 53.207 62.2689 53.207 62.4426V62.9462C53.207 63.1719 53.1028 63.2761 52.7381 63.3976C51.9046 63.6407 51.6441 64.0228 51.6441 64.9604V72.9655C51.6441 74.0941 51.8872 74.4414 52.7729 74.754C53.1202 74.8755 53.207 74.9624 53.207 75.1881V75.6222L53.1896 75.6569Z" fill="#0093B1"/>
<path d="M65.3799 74.5456C67.7762 74.5456 69.4086 73.799 70.1205 72.3403C70.2768 72.0799 70.3636 71.993 70.5547 71.993H71.4924C71.7528 71.993 71.8397 72.0972 71.8397 72.3751V75.9695H56.5931C56.2284 75.9695 56.1416 75.9174 56.1416 75.7264V75.136C56.1416 74.8929 56.2284 74.7887 56.5757 74.7366C56.9578 74.6845 57.1488 74.5977 57.4093 74.372C57.7045 74.0941 57.8607 73.7295 57.8607 73.2259V64.7521C57.8607 64.0575 57.4787 63.6407 56.7146 63.4324C56.3673 63.3455 56.2805 63.2414 56.2805 62.9288V62.3905C56.2805 62.2342 56.35 62.1821 56.541 62.1821H63.435C63.6781 62.1821 63.7475 62.2516 63.7475 62.4079V62.9635C63.7475 63.1893 63.5912 63.2934 63.1745 63.3976C62.3062 63.6407 61.9763 64.1096 61.9763 65.1688V74.5283H65.3972L65.3799 74.5456Z" fill="#0093B1"/>
<path d="M81.4077 74.5456C83.8041 74.5456 85.4364 73.799 86.1484 72.3403C86.3047 72.0799 86.3915 71.993 86.5825 71.993H87.5202C87.7807 71.993 87.8675 72.0972 87.8675 72.3751V75.9695H72.6209C72.2563 75.9695 72.1694 75.9174 72.1694 75.7264V75.136C72.1694 74.8929 72.2563 74.7887 72.6036 74.7366C72.9856 74.6845 73.1766 74.5977 73.4371 74.372C73.7323 74.0941 73.8886 73.7295 73.8886 73.2259V64.7521C73.8886 64.0575 73.5065 63.6407 72.7425 63.4324C72.3952 63.3455 72.3084 63.2414 72.3084 62.9288V62.3905C72.3084 62.2342 72.3778 62.1821 72.5688 62.1821H79.4628C79.7059 62.1821 79.7754 62.2516 79.7754 62.4079V62.9635C79.7754 63.1893 79.6191 63.2934 79.2023 63.3976C78.3341 63.6407 78.0041 64.1096 78.0041 65.1688V74.5283H81.425L81.4077 74.5456Z" fill="#0093B1"/>
<path d="M104.781 64.5089C106.17 65.7244 106.917 67.3393 106.917 69.1452C106.917 70.9511 106.17 72.4271 104.677 73.7642C102.749 75.4659 100.284 76.282 96.9842 76.282C93.6848 76.282 91.0453 75.4138 89.1525 73.6773C87.6591 72.3403 86.895 70.7775 86.895 69.0237C86.895 64.9604 91.1495 61.939 96.8452 61.939C100.231 61.939 102.836 62.7725 104.781 64.4915V64.5089ZM91.7573 69.1105C91.7573 72.5139 93.7369 74.6324 96.9147 74.6324C98.3213 74.6324 99.5368 74.2156 100.422 73.4169C101.516 72.4445 102.09 70.9164 102.09 68.9195C102.09 66.7489 101.239 65.0819 99.6931 64.2311C98.9291 63.8317 97.9566 63.5886 97.0189 63.5886C93.6674 63.5886 91.7399 65.6202 91.7399 69.1105H91.7573Z" fill="#0093B1"/>
<path d="M111.692 69.7878C111.692 71.0901 111.727 72.2188 111.849 73.2086C111.936 74.0247 112.283 74.4588 113.047 74.6845C113.394 74.7887 113.481 74.8755 113.481 75.1186V75.709C113.481 75.9348 113.446 75.9695 113.116 75.9695H108.653C108.532 75.9695 108.393 75.8306 108.393 75.709V75.1881C108.393 74.9276 108.462 74.8408 108.775 74.7714C109.122 74.6672 109.279 74.5977 109.591 74.3546C109.852 74.1115 109.939 73.8858 109.904 73.3996V65.3251C109.904 64.0749 109.522 63.5366 108.584 63.3455C108.271 63.2935 108.15 63.2066 108.15 62.9983V62.4426C108.15 62.2689 108.271 62.1995 108.515 62.1995H114.124L122.754 70.4823V64.7868C122.754 64.1269 122.407 63.6755 121.729 63.4497C121.295 63.3108 121.174 63.1893 121.174 62.8941V62.3731C121.174 62.2689 121.33 62.1821 121.486 62.1821H125.897C126.105 62.1821 126.227 62.2516 126.227 62.4079V62.8593C126.227 63.1893 126.123 63.2934 125.741 63.3976C125.428 63.4845 125.272 63.5539 125.081 63.7276C124.786 63.988 124.699 64.179 124.699 64.5611V75.8132C124.699 75.9521 124.664 76.0042 124.49 76.0042H122.997L111.849 65.3251L111.692 69.7704V69.7878Z" fill="#0093B1"/>
<path d="M33.2197 83.3146C33.2197 83.4709 33.1676 83.5403 33.0113 83.5403C32.8377 83.5403 32.7508 83.4535 32.5946 83.2104C32.4209 82.9152 32.282 82.7589 32.0041 82.5332C31.3443 82.0644 30.667 81.856 29.7988 81.856C27.715 81.856 26.2736 83.4535 26.2736 85.7109C26.2736 87.9683 27.7497 89.4443 29.9551 89.4443C30.8233 89.4443 31.7089 89.2185 32.282 88.8191C32.5772 88.6455 32.7682 88.4198 32.9592 88.1072C33.1329 87.8467 33.2371 87.7425 33.376 87.7425C33.5496 87.7425 33.6017 87.7599 33.6017 87.8294V89.1664C33.6017 89.2706 33.5496 89.3227 33.4628 89.3227C33.4281 89.3227 33.3934 89.3227 33.3239 89.3053C33.1676 89.2706 33.0287 89.2532 32.9071 89.2532C32.7508 89.2532 32.5598 89.3053 32.2125 89.4443C31.3443 89.8089 30.5976 89.9826 29.7293 89.9826C28.5138 89.9826 27.3156 89.6526 26.4647 89.097C25.2665 88.2982 24.6587 87.1869 24.6587 85.7283C24.6587 84.1307 25.3707 82.8979 26.7599 82.047C27.576 81.5434 28.5658 81.283 29.5557 81.283C30.2155 81.283 30.7539 81.3698 31.4311 81.6129C31.7263 81.7171 31.8826 81.7518 32.0215 81.7518C32.1604 81.7518 32.3167 81.7344 32.5598 81.665C32.7508 81.6129 32.8029 81.5955 32.9245 81.5955C33.0634 81.5955 33.1155 81.665 33.1155 81.8386L33.1676 83.2972L33.2197 83.3146Z" fill="#0093B1"/>
<path d="M42.9092 82.3075C43.9685 83.1062 44.4894 84.2002 44.4894 85.6067C44.4894 87.0132 43.9858 88.1246 42.996 88.906C42.1104 89.5832 40.9122 89.9826 39.714 89.9826C36.9009 89.9826 34.8691 88.1766 34.8691 85.6935C34.8691 84.1307 35.5985 82.8284 36.9009 82.047C37.6823 81.5782 38.7589 81.283 39.6966 81.283C40.8948 81.283 42.0236 81.6476 42.9092 82.3248V82.3075ZM36.4667 85.7109C36.4667 88.2287 37.5434 89.4963 39.6793 89.4963C41.8152 89.4963 42.9266 88.2287 42.9266 85.6762C42.9266 83.8008 42.3709 82.6027 41.2769 82.0991C40.8254 81.9081 40.235 81.7692 39.714 81.7692C37.526 81.7692 36.4667 83.0541 36.4667 85.7109Z" fill="#0093B1"/>
<path d="M54.5959 82.7764C54.5959 82.2555 54.457 82.0992 54.0229 81.9429C53.7624 81.8561 53.7103 81.7867 53.7103 81.613C53.7103 81.5088 53.745 81.4915 53.8318 81.4915H55.9157C56.0372 81.4915 56.0893 81.5435 56.0893 81.6477C56.0893 81.804 56.0372 81.8387 55.8288 81.9082C55.6552 81.9603 55.5857 81.995 55.4815 82.0818C55.3079 82.2381 55.2905 82.377 55.2905 82.7591V89.6528C55.2905 89.8611 55.1863 89.9827 54.9432 89.9827C54.7348 89.9827 54.5091 89.8959 54.3528 89.7569L47.4588 82.8632H47.4241V88.2289C47.4241 89.0971 47.5457 89.3055 48.1013 89.4444C48.3618 89.4965 48.4313 89.5659 48.4313 89.7743C48.4313 89.8611 48.3792 89.8959 48.2576 89.8959H45.9654C45.8612 89.8959 45.7918 89.8264 45.7918 89.7048C45.7918 89.5833 45.8439 89.5138 46.1043 89.4444C46.6948 89.236 46.7642 89.0971 46.7642 88.2289V82.8632C46.7642 82.3597 46.5906 82.1513 46.087 81.9603C45.8439 81.8735 45.7744 81.804 45.7744 81.6651C45.7744 81.5609 45.8265 81.5262 45.9307 81.5262H47.8409L54.5959 88.2462H54.6306V82.8285L54.5959 82.7764Z" fill="#0093B1"/>
<path d="M64.1123 83.4537C64.1123 83.5405 64.0428 83.5752 63.8691 83.5752C63.6781 83.5752 63.5739 83.5058 63.435 83.2453C63.244 82.898 63.053 82.6896 62.671 82.3771C62.1153 81.9777 61.5596 81.804 60.8997 81.804C59.6321 81.804 58.7291 82.4118 58.7291 83.2627C58.7291 83.5579 58.8159 83.7662 59.059 83.9746C59.1806 84.0614 59.3542 84.183 59.4758 84.2524C59.7883 84.4087 60.5003 84.5824 61.247 84.7386C62.2542 84.9296 63.2093 85.2075 63.626 85.4506C63.7476 85.52 63.9212 85.6069 64.1123 85.7458C64.6853 86.2146 64.9284 86.7182 64.9284 87.4128C64.9284 88.9582 63.626 89.9827 61.6291 89.9827C61.0734 89.9827 60.6045 89.8959 59.8925 89.6701C59.441 89.5139 59.2153 89.4618 59.0069 89.4618C58.7638 89.4618 58.6075 89.5139 58.347 89.7049C58.1387 89.8438 58.0171 89.8959 57.8608 89.8959C57.7566 89.8959 57.7393 89.8785 57.7393 89.7396V87.7948C57.7393 87.708 57.8087 87.6559 57.9824 87.6559C58.1213 87.6559 58.2081 87.708 58.3991 87.9337C59.1806 88.9408 60.3961 89.5312 61.6464 89.5312C63.0356 89.5312 64.0775 88.8367 64.0775 87.9337C64.0775 87.5517 63.9039 87.187 63.5566 86.8918C63.4003 86.7703 63.1919 86.614 63.0183 86.5272C62.6883 86.3709 61.9763 86.1625 61.1776 85.9889C60.0662 85.7631 59.2674 85.5027 58.8506 85.2248C58.2081 84.8255 57.9129 84.2872 57.9129 83.6273C57.9129 82.325 59.1632 81.3352 60.8129 81.3352C61.3512 81.3352 61.8548 81.422 62.5494 81.6825C62.9141 81.804 63.1051 81.8561 63.2787 81.8561C63.4524 81.8561 63.5739 81.8214 63.7476 81.7172C63.8518 81.6304 63.9212 81.6304 63.9733 81.6304C64.0602 81.6304 64.1296 81.6825 64.1296 81.752V83.4537H64.1123Z" fill="#0093B1"/>
<path d="M69.4607 81.4915C69.6691 81.4915 69.7559 81.5436 69.7559 81.6478C69.7559 81.804 69.6344 81.8909 69.3392 81.9777C69.1655 82.0298 69.0961 82.0645 68.9919 82.134C68.8182 82.2729 68.7488 82.4986 68.7488 82.7417V87.1349C68.7488 88.5241 69.8428 89.3402 71.7356 89.3402C73.8194 89.3402 75.0523 88.4546 75.0523 86.996V83.0369C75.0523 82.4465 74.8787 82.1687 74.3924 81.9256C74.1493 81.8214 74.0972 81.752 74.0972 81.6304C74.0972 81.5262 74.1667 81.4741 74.2882 81.4741H76.3721C76.4936 81.4741 76.5804 81.5436 76.5804 81.6651C76.5804 81.7693 76.511 81.8388 76.2679 81.9603C75.8511 82.1513 75.7296 82.2903 75.7296 82.6375V86.996C75.7296 87.9163 75.417 88.5762 74.7224 89.0971C73.9409 89.6875 72.8643 90.0001 71.5446 90.0001C68.9571 90.0001 67.3422 88.8714 67.3422 87.0307V82.707C67.3422 82.1687 67.2554 82.0124 66.8907 81.9256C66.6476 81.8561 66.5781 81.7867 66.5781 81.6304C66.5781 81.5436 66.6302 81.5089 66.717 81.5089H69.5128L69.4607 81.4915Z" fill="#0093B1"/>
<path d="M78.5423 89.8785C78.3339 89.8785 78.2471 89.8264 78.2471 89.6701C78.2471 89.4964 78.3165 89.427 78.5596 89.3923C78.768 89.3749 78.8548 89.3228 78.9764 89.2186C79.0806 89.1144 79.1674 88.9581 79.1848 88.854L79.2195 88.2809L79.289 86.4577C79.289 85.0338 79.2542 83.7835 79.2195 82.6896C79.2195 82.2555 79.1501 82.1339 78.7507 81.9429C78.577 81.8387 78.5423 81.7866 78.5423 81.6651C78.5423 81.5435 78.5944 81.5088 78.768 81.5088H81.2339C81.4249 81.5088 81.5117 81.5609 81.5117 81.6998C81.5117 81.8387 81.4423 81.9082 81.2512 81.9603C80.8518 82.0818 80.6782 82.3076 80.6782 82.6896V89.3749H84.3249C85.4536 89.3749 86.0787 89.0971 86.3566 88.4719C86.4608 88.2288 86.5476 88.142 86.7386 88.142C86.9123 88.142 86.9817 88.2115 86.9817 88.3678V89.8785H78.5423Z" fill="#0093B1"/>
<path d="M88.5449 81.9429C87.6941 81.9429 87.3294 82.1339 87.0863 82.6722C86.9821 82.9326 86.8953 83.0021 86.6348 83.0021C86.5653 83.0021 86.5132 83.0021 86.4611 82.9847C86.4611 82.9847 86.4611 82.9674 86.4264 82.95C86.3917 82.9153 86.3917 82.8806 86.4264 82.8806L86.3569 82.4117C86.3569 82.0644 86.3917 81.7692 86.4264 81.5088C86.4264 81.4393 86.4785 81.4046 86.6695 81.4046C86.7563 81.4046 86.93 81.4046 87.1384 81.4219C87.6072 81.474 87.8851 81.474 88.1803 81.474H94.7443C95.0221 81.474 95.3347 81.4567 95.6646 81.4219C95.8383 81.4046 95.9599 81.3872 96.0467 81.3872C96.1682 81.3872 96.2203 81.4219 96.2203 81.4914V82.8458C96.2203 82.9847 96.1682 83.0195 96.0293 83.0021C95.7515 83.0021 95.682 82.95 95.5778 82.6722C95.3694 82.1339 94.9527 81.9429 94.0844 81.9429H92.0353V88.524C92.0353 89.0102 92.2264 89.2359 92.7299 89.3749C92.9904 89.4617 93.0599 89.5311 93.0599 89.7395C93.0599 89.8437 93.0251 89.8611 92.9036 89.8611H89.6389C89.5521 89.8611 89.5174 89.809 89.5174 89.7048C89.5174 89.5138 89.6216 89.4443 89.9342 89.3922C90.1425 89.3401 90.2294 89.3228 90.3509 89.2359C90.5246 89.0797 90.594 88.8713 90.594 88.5066V81.9429H88.5102H88.5449Z" fill="#0093B1"/>
<path d="M100.596 81.4915C100.753 81.4915 100.805 81.5435 100.805 81.6651C100.805 81.8214 100.7 81.8908 100.405 81.9429C100.232 81.9777 100.162 81.995 100.058 82.0645C99.9364 82.1687 99.9016 82.2729 99.9016 82.568V88.6803C99.9016 89.0971 100.11 89.3749 100.544 89.4617C100.77 89.5138 100.839 89.5659 100.839 89.7048C100.839 89.809 100.753 89.8959 100.631 89.8959H97.7831C97.6789 89.8959 97.6094 89.8438 97.6094 89.7396C97.6094 89.618 97.6789 89.5486 97.8873 89.4965C98.304 89.3749 98.4777 89.1665 98.4777 88.7672V82.707C98.4777 82.2208 98.4082 82.0992 97.9741 81.9777C97.6789 81.8908 97.5747 81.8214 97.5747 81.6825C97.5747 81.5609 97.6268 81.5262 97.7831 81.5262H100.579L100.596 81.4915Z" fill="#0093B1"/>
<path d="M112.075 82.7764C112.075 82.2555 111.936 82.0992 111.502 81.9429C111.241 81.8561 111.189 81.7867 111.189 81.613C111.189 81.5088 111.224 81.4915 111.311 81.4915H113.394C113.516 81.4915 113.568 81.5435 113.568 81.6477C113.568 81.804 113.499 81.8387 113.308 81.9082C113.134 81.9603 113.065 81.995 112.96 82.0818C112.787 82.2381 112.769 82.377 112.769 82.7591V89.6528C112.769 89.8611 112.665 89.9827 112.422 89.9827C112.214 89.9827 111.988 89.8959 111.832 89.7569L104.938 82.8632H104.903V88.2289C104.903 89.0971 105.024 89.3055 105.58 89.4444C105.841 89.4965 105.91 89.5659 105.91 89.7743C105.91 89.8611 105.858 89.8959 105.736 89.8959H103.444C103.34 89.8959 103.271 89.8264 103.271 89.7048C103.271 89.5833 103.323 89.5138 103.583 89.4444C104.174 89.236 104.226 89.0971 104.226 88.2289V82.8632C104.226 82.3597 104.052 82.1513 103.548 81.9603C103.305 81.8735 103.236 81.804 103.236 81.6651C103.236 81.5609 103.288 81.5262 103.392 81.5262H105.302L112.057 88.2462H112.092V82.8285L112.075 82.7764Z" fill="#0093B1"/>
<path d="M125.48 89.3748C123.778 89.8089 122.424 89.9825 120.983 89.9825C119.055 89.9825 117.614 89.6005 116.589 88.7844C115.634 88.0377 115.148 87.0306 115.148 85.763C115.148 84.4954 115.634 83.4709 116.641 82.6374C117.701 81.7518 119.038 81.3003 120.531 81.3003C121.295 81.3003 121.92 81.4045 122.719 81.6649C123.014 81.7691 123.205 81.8212 123.344 81.8212C123.431 81.8212 123.518 81.8039 123.692 81.7518C123.865 81.6997 123.969 81.6997 124.074 81.6997C124.213 81.6997 124.247 81.6997 124.247 81.8039V83.5056C124.247 83.5056 124.178 83.6271 124.039 83.6271C123.813 83.6271 123.639 83.5056 123.396 83.1583C122.737 82.238 121.868 81.8039 120.635 81.8039C119.732 81.8039 118.881 82.0991 118.187 82.6374C117.249 83.3667 116.78 84.3391 116.78 85.6588C116.78 86.9785 117.232 88.003 118.083 88.6628C118.795 89.2359 119.715 89.4963 121 89.4963C121.92 89.4963 122.632 89.3574 122.997 89.0796C123.31 88.8538 123.414 88.576 123.414 88.0377C123.414 87.5689 123.344 87.4299 123.066 87.2737C122.823 87.1521 122.754 87.0653 122.754 86.8917C122.754 86.7527 122.806 86.718 122.98 86.718H124.56C124.786 86.718 124.838 86.7527 124.838 86.9611V88.3155C124.838 88.8017 124.907 88.8712 125.532 89.1143V89.3748H125.48Z" fill="#0093B1"/>
<path d="M69.1651 46.7625L69.0088 46.8319L68.5747 47.023L68.7831 47.4397L68.8525 47.596L71.0232 51.8329L71.0926 51.9718L71.2837 52.3365L71.6657 52.1802L71.8046 52.1281L149.583 18.5973L149.982 18.4237L149.809 18.0243L147.847 13.4748L147.673 13.0754L147.273 13.2491L69.1651 46.7972V46.7625Z" fill="black"/>
<path d="M1.18083 2.81304C1.18083 2.81304 1.26765 2.89986 1.31975 2.95196L0.0868257 0H0L1.18083 2.81304Z" fill="url(#paint0_linear_1_10413)"/>
<path d="M4.18507 3.36865C4.08088 3.28183 3.99405 3.17764 3.90723 3.09082L5.60901 7.2062C5.69584 7.31038 5.80003 7.39721 5.88685 7.48403L4.1677 3.36865H4.18507Z" fill="url(#paint1_linear_1_10413)"/>
<path d="M8.35246 6.91113C8.2309 6.82431 8.10935 6.73749 7.98779 6.6333L9.91532 11.287C10.0542 11.4085 10.1758 11.5301 10.3147 11.6343L8.35246 6.89377V6.91113Z" fill="url(#paint2_linear_1_10413)"/>
<path d="M12.2425 9.77618C12.0862 9.672 11.9299 9.56781 11.791 9.46362L13.9269 14.6035C14.1006 14.7251 14.2569 14.864 14.4132 14.9855L12.2425 9.75882V9.77618Z" fill="url(#paint3_linear_1_10413)"/>
<path d="M15.9236 12.1725C15.7326 12.051 15.5416 11.9294 15.3506 11.8079L17.6601 17.3819C17.8512 17.5208 18.0422 17.6597 18.2506 17.7812L15.9236 12.1725Z" fill="url(#paint4_linear_1_10413)"/>
<path d="M19.4492 14.152C19.2234 14.0305 19.015 13.9089 18.8066 13.7874L21.2551 19.6913C21.4809 19.8302 21.7066 19.9691 21.915 20.0907L19.4492 14.152Z" fill="url(#paint5_linear_1_10413)"/>
<path d="M22.87 15.8885C22.6268 15.767 22.3837 15.6628 22.1406 15.5413L24.6933 21.6883C24.9364 21.8272 25.1969 21.9487 25.44 22.0703L22.87 15.8885Z" fill="url(#paint6_linear_1_10413)"/>
<path d="M26.2212 17.4339C25.9607 17.3124 25.6828 17.2256 25.4224 17.104L28.0445 23.4247C28.305 23.5462 28.5828 23.6678 28.8607 23.7893L26.2212 17.4339Z" fill="url(#paint7_linear_1_10413)"/>
<path d="M29.4684 18.7882C29.1558 18.6667 28.878 18.5278 28.5654 18.4236L31.2397 24.8658C31.5522 25.0047 31.8474 25.1436 32.16 25.2825L29.4684 18.8056V18.7882Z" fill="url(#paint8_linear_1_10413)"/>
<path d="M32.6463 19.9171C32.3163 19.8129 32.0038 19.6913 31.6738 19.5872L34.3828 26.0988C34.7127 26.2204 35.0427 26.3419 35.3726 26.4635L32.6463 19.9344V19.9171Z" fill="url(#paint9_linear_1_10413)"/>
<path d="M35.7724 20.9414C35.4251 20.8372 35.0778 20.7504 34.7305 20.6462L37.4394 27.1753C37.7867 27.2795 38.134 27.3837 38.4813 27.4878L35.755 20.9414H35.7724Z" fill="url(#paint10_linear_1_10413)"/>
<path d="M38.8284 21.8272C38.4464 21.7231 38.0817 21.6015 37.6997 21.4973L40.426 28.0611C40.8081 28.1653 41.1727 28.2868 41.5548 28.391L38.8111 21.8099L38.8284 21.8272Z" fill="url(#paint11_linear_1_10413)"/>
<path d="M41.8325 22.5737C41.4331 22.4869 41.0337 22.4001 40.6343 22.2959L43.3432 28.8076C43.7426 28.8944 44.142 28.9986 44.5414 29.0854L41.8325 22.5564V22.5737Z" fill="url(#paint12_linear_1_10413)"/>
<path d="M44.8192 23.251C44.3851 23.1642 43.9683 23.0426 43.5342 22.9558L46.2431 29.4848C46.6599 29.5717 47.0767 29.6238 47.4934 29.6932L44.8192 23.251Z" fill="url(#paint13_linear_1_10413)"/>
<path d="M47.7194 23.7545C47.2679 23.6851 46.8165 23.6156 46.3823 23.5288L49.0566 29.9537C49.508 30.0231 49.9422 30.1099 50.3937 30.1794L47.7194 23.7545Z" fill="url(#paint14_linear_1_10413)"/>
<path d="M50.6022 24.2235C50.1333 24.1541 49.6644 24.0846 49.1782 24.0151L51.8351 30.3879C52.2866 30.44 52.7554 30.4747 53.2243 30.5268L50.6022 24.2409V24.2235Z" fill="url(#paint15_linear_1_10413)"/>
<path d="M53.4326 24.5359C52.9464 24.4839 52.4428 24.4318 51.9565 24.3623L54.5613 30.6482C55.0475 30.7003 55.5338 30.7698 56.0373 30.8045L53.4326 24.5359Z" fill="url(#paint16_linear_1_10413)"/>
<path d="M56.2457 24.7964C55.7247 24.7616 55.2211 24.7269 54.7002 24.6748L57.2702 30.8566C57.7738 30.8913 58.2774 30.9086 58.7984 30.926L56.2457 24.8137V24.7964Z" fill="url(#paint17_linear_1_10413)"/>
<path d="M59.0066 24.9528C58.4682 24.9354 57.9299 24.9007 57.3916 24.866L59.9269 30.9609C60.4652 30.9609 60.9862 31.013 61.5245 31.013L59.0066 24.9528Z" fill="url(#paint18_linear_1_10413)"/>
<path d="M61.733 25.0396C61.1773 25.0396 60.6216 25.0396 60.0659 25.0049L62.5491 30.9956C63.0875 30.9956 63.6431 30.9956 64.1988 30.9609L61.733 25.0396Z" fill="url(#paint19_linear_1_10413)"/>
<path d="M64.4245 25.0396C63.8515 25.0396 63.261 25.0396 62.688 25.0396L65.1538 30.9608C65.7269 30.9435 66.2999 30.9435 66.873 30.9087L64.4245 25.0396Z" fill="url(#paint20_linear_1_10413)"/>
<path d="M67.0987 24.9526C66.5083 24.9874 65.9005 25.0221 65.3101 25.0395L67.7238 30.8392C68.3142 30.8045 68.9046 30.7524 69.4951 30.7003L67.0987 24.9526Z" fill="url(#paint21_linear_1_10413)"/>
<path d="M69.7209 24.7964C69.0957 24.8485 68.4879 24.8832 67.8628 24.9179L70.2592 30.6656C70.867 30.6135 71.4921 30.5788 72.0999 30.5093L69.7209 24.8138V24.7964Z" fill="url(#paint22_linear_1_10413)"/>
<path d="M72.3257 24.5535C71.6832 24.6229 71.058 24.6924 70.4155 24.7445L72.7772 30.4053C73.4023 30.3358 74.0448 30.249 74.67 30.1622L72.3431 24.5535H72.3257Z" fill="url(#paint23_linear_1_10413)"/>
<path d="M74.8785 24.2234C74.2187 24.3102 73.5588 24.397 72.8989 24.4665L75.2259 30.0752C75.851 29.9884 76.4761 29.9363 77.1187 29.8321C77.1534 29.8321 77.1707 29.8321 77.2055 29.8321L74.8785 24.2408V24.2234Z" fill="url(#paint24_linear_1_10413)"/>
<path d="M77.4313 23.8589C77.0319 23.9283 76.6326 23.9978 76.2332 24.0673C75.9553 24.102 75.6775 24.1367 75.417 24.1714L77.7266 29.7454C78.4038 29.6413 79.0637 29.5197 79.7409 29.3982L77.4313 23.8589Z" fill="url(#paint25_linear_1_10413)"/>
<path d="M79.9315 23.4246C79.2369 23.5461 78.5423 23.6677 77.8477 23.7892L80.1572 29.3285C80.8518 29.2069 81.5464 29.068 82.241 28.9291L79.9488 23.4246H79.9315Z" fill="url(#paint26_linear_1_10413)"/>
<path d="M82.4323 22.9211C81.7203 23.0601 81.0084 23.2163 80.2964 23.3553L82.5886 28.8598C83.3006 28.7209 84.0299 28.582 84.7245 28.4257L82.4323 22.9385V22.9211Z" fill="url(#paint27_linear_1_10413)"/>
<path d="M84.8982 22.3828C84.1689 22.5565 83.4396 22.7127 82.6929 22.869L84.9851 28.3562C85.7318 28.1999 86.4437 28.0263 87.1731 27.8526L84.8982 22.3828Z" fill="url(#paint28_linear_1_10413)"/>
<path d="M87.3642 21.8098C86.6175 22.0008 85.8534 22.1571 85.0894 22.3307L87.3642 27.8006C88.1283 27.6269 88.875 27.4359 89.6217 27.2449L87.3642 21.8098Z" fill="url(#paint29_linear_1_10413)"/>
<path d="M143.696 6.00807L144.096 5.83443L143.922 5.43505L142.012 0.850829L141.838 0.434082L141.422 0.607727C141.422 0.607727 133.225 4.18481 128.936 6.14699C116.711 11.721 103.166 17.9027 87.4507 21.775L89.7081 27.2101C105.754 23.1294 119.68 16.774 131.35 11.4605C135.604 9.51569 143.592 6.02544 143.679 5.99071L143.696 6.00807Z" fill="url(#paint30_linear_1_10413)"/>
</g>
<defs>
<linearGradient id="paint0_linear_1_10413" x1="3.50776" y1="1.47598" x2="140.119" y2="1.47598" gradientUnits="userSpaceOnUse">
<stop stop-color="#0093B1"/>
<stop offset="0.42" stop-color="#0093B1"/>
<stop offset="1"/>
</linearGradient>
<linearGradient id="paint1_linear_1_10413" x1="3.50783" y1="5.27874" x2="140.137" y2="5.27874" gradientUnits="userSpaceOnUse">
<stop stop-color="#0093B1"/>
<stop offset="0.42" stop-color="#0093B1"/>
<stop offset="1"/>
</linearGradient>
<linearGradient id="paint2_linear_1_10413" x1="3.52495" y1="9.13378" x2="140.119" y2="9.13378" gradientUnits="userSpaceOnUse">
<stop stop-color="#0093B1"/>
<stop offset="0.42" stop-color="#0093B1"/>
<stop offset="1"/>
</linearGradient>
<linearGradient id="paint3_linear_1_10413" x1="3.50785" y1="12.2419" x2="140.119" y2="12.2419" gradientUnits="userSpaceOnUse">
<stop stop-color="#0093B1"/>
<stop offset="0.42" stop-color="#0093B1"/>
<stop offset="1"/>
</linearGradient>
<linearGradient id="paint4_linear_1_10413" x1="3.52493" y1="14.7772" x2="140.119" y2="14.7772" gradientUnits="userSpaceOnUse">
<stop stop-color="#0093B1"/>
<stop offset="0.42" stop-color="#0093B1"/>
<stop offset="1"/>
</linearGradient>
<linearGradient id="paint5_linear_1_10413" x1="3.50796" y1="16.9477" x2="140.119" y2="16.9477" gradientUnits="userSpaceOnUse">
<stop stop-color="#0093B1"/>
<stop offset="0.42" stop-color="#0093B1"/>
<stop offset="1"/>
</linearGradient>
<linearGradient id="paint6_linear_1_10413" x1="3.52521" y1="18.8058" x2="140.119" y2="18.8058" gradientUnits="userSpaceOnUse">
<stop stop-color="#0093B1"/>
<stop offset="0.42" stop-color="#0093B1"/>
<stop offset="1"/>
</linearGradient>
<linearGradient id="paint7_linear_1_10413" x1="3.52493" y1="20.438" x2="140.119" y2="20.438" gradientUnits="userSpaceOnUse">
<stop stop-color="#0093B1"/>
<stop offset="0.42" stop-color="#0093B1"/>
<stop offset="1"/>
</linearGradient>
<linearGradient id="paint8_linear_1_10413" x1="3.52491" y1="21.827" x2="140.119" y2="21.827" gradientUnits="userSpaceOnUse">
<stop stop-color="#0093B1"/>
<stop offset="0.42" stop-color="#0093B1"/>
<stop offset="1"/>
</linearGradient>
<linearGradient id="paint9_linear_1_10413" x1="3.50757" y1="23.008" x2="140.119" y2="23.008" gradientUnits="userSpaceOnUse">
<stop stop-color="#0093B1"/>
<stop offset="0.42" stop-color="#0093B1"/>
<stop offset="1"/>
</linearGradient>
<linearGradient id="paint10_linear_1_10413" x1="3.50796" y1="24.067" x2="140.119" y2="24.067" gradientUnits="userSpaceOnUse">
<stop stop-color="#0093B1"/>
<stop offset="0.42" stop-color="#0093B1"/>
<stop offset="1"/>
</linearGradient>
<linearGradient id="paint11_linear_1_10413" x1="3.52511" y1="24.9528" x2="140.119" y2="24.9528" gradientUnits="userSpaceOnUse">
<stop stop-color="#0093B1"/>
<stop offset="0.42" stop-color="#0093B1"/>
<stop offset="1"/>
</linearGradient>
<linearGradient id="paint12_linear_1_10413" x1="3.50762" y1="25.6993" x2="140.119" y2="25.6993" gradientUnits="userSpaceOnUse">
<stop stop-color="#0093B1"/>
<stop offset="0.42" stop-color="#0093B1"/>
<stop offset="1"/>
</linearGradient>
<linearGradient id="paint13_linear_1_10413" x1="3.50754" y1="26.3245" x2="140.119" y2="26.3245" gradientUnits="userSpaceOnUse">
<stop stop-color="#0093B1"/>
<stop offset="0.42" stop-color="#0093B1"/>
<stop offset="1"/>
</linearGradient>
<linearGradient id="paint14_linear_1_10413" x1="3.52516" y1="26.8454" x2="140.119" y2="26.8454" gradientUnits="userSpaceOnUse">
<stop stop-color="#0093B1"/>
<stop offset="0.42" stop-color="#0093B1"/>
<stop offset="1"/>
</linearGradient>
<linearGradient id="paint15_linear_1_10413" x1="3.50793" y1="27.2623" x2="140.119" y2="27.2623" gradientUnits="userSpaceOnUse">
<stop stop-color="#0093B1"/>
<stop offset="0.42" stop-color="#0093B1"/>
<stop offset="1"/>
</linearGradient>
<linearGradient id="paint16_linear_1_10413" x1="3.52518" y1="27.5921" x2="140.119" y2="27.5921" gradientUnits="userSpaceOnUse">
<stop stop-color="#0093B1"/>
<stop offset="0.42" stop-color="#0093B1"/>
<stop offset="1"/>
</linearGradient>
<linearGradient id="paint17_linear_1_10413" x1="3.50778" y1="27.8004" x2="140.119" y2="27.8004" gradientUnits="userSpaceOnUse">
<stop stop-color="#0093B1"/>
<stop offset="0.42" stop-color="#0093B1"/>
<stop offset="1"/>
</linearGradient>
<linearGradient id="paint18_linear_1_10413" x1="3.52494" y1="27.9395" x2="140.119" y2="27.9395" gradientUnits="userSpaceOnUse">
<stop stop-color="#0093B1"/>
<stop offset="0.42" stop-color="#0093B1"/>
<stop offset="1"/>
</linearGradient>
<linearGradient id="paint19_linear_1_10413" x1="3.52502" y1="28.0089" x2="140.119" y2="28.0089" gradientUnits="userSpaceOnUse">
<stop stop-color="#0093B1"/>
<stop offset="0.42" stop-color="#0093B1"/>
<stop offset="1"/>
</linearGradient>
<linearGradient id="paint20_linear_1_10413" x1="3.50762" y1="27.9915" x2="140.119" y2="27.9915" gradientUnits="userSpaceOnUse">
<stop stop-color="#0093B1"/>
<stop offset="0.42" stop-color="#0093B1"/>
<stop offset="1"/>
</linearGradient>
<linearGradient id="paint21_linear_1_10413" x1="3.52492" y1="27.9046" x2="140.119" y2="27.9046" gradientUnits="userSpaceOnUse">
<stop stop-color="#0093B1"/>
<stop offset="0.42" stop-color="#0093B1"/>
<stop offset="1"/>
</linearGradient>
<linearGradient id="paint22_linear_1_10413" x1="3.50764" y1="27.7136" x2="140.119" y2="27.7136" gradientUnits="userSpaceOnUse">
<stop stop-color="#0093B1"/>
<stop offset="0.42" stop-color="#0093B1"/>
<stop offset="1"/>
</linearGradient>
<linearGradient id="paint23_linear_1_10413" x1="3.52502" y1="27.4707" x2="140.119" y2="27.4707" gradientUnits="userSpaceOnUse">
<stop stop-color="#0093B1"/>
<stop offset="0.42" stop-color="#0093B1"/>
<stop offset="1"/>
</linearGradient>
<linearGradient id="paint24_linear_1_10413" x1="3.50787" y1="27.158" x2="140.119" y2="27.158" gradientUnits="userSpaceOnUse">
<stop stop-color="#0093B1"/>
<stop offset="0.42" stop-color="#0093B1"/>
<stop offset="1"/>
</linearGradient>
<linearGradient id="paint25_linear_1_10413" x1="3.52542" y1="26.7935" x2="140.119" y2="26.7935" gradientUnits="userSpaceOnUse">
<stop stop-color="#0093B1"/>
<stop offset="0.42" stop-color="#0093B1"/>
<stop offset="1"/>
</linearGradient>
<linearGradient id="paint26_linear_1_10413" x1="3.52493" y1="26.3592" x2="140.119" y2="26.3592" gradientUnits="userSpaceOnUse">
<stop stop-color="#0093B1"/>
<stop offset="0.42" stop-color="#0093B1"/>
<stop offset="1"/>
</linearGradient>
<linearGradient id="paint27_linear_1_10413" x1="3.52516" y1="25.8905" x2="140.119" y2="25.8905" gradientUnits="userSpaceOnUse">
<stop stop-color="#0093B1"/>
<stop offset="0.42" stop-color="#0093B1"/>
<stop offset="1"/>
</linearGradient>
<linearGradient id="paint28_linear_1_10413" x1="3.52519" y1="25.3695" x2="140.119" y2="25.3695" gradientUnits="userSpaceOnUse">
<stop stop-color="#0093B1"/>
<stop offset="0.42" stop-color="#0093B1"/>
<stop offset="1"/>
</linearGradient>
<linearGradient id="paint29_linear_1_10413" x1="3.52531" y1="24.8139" x2="140.119" y2="24.8139" gradientUnits="userSpaceOnUse">
<stop stop-color="#0093B1"/>
<stop offset="0.42" stop-color="#0093B1"/>
<stop offset="1"/>
</linearGradient>
<linearGradient id="paint30_linear_1_10413" x1="3.50763" y1="13.8221" x2="140.119" y2="13.8221" gradientUnits="userSpaceOnUse">
<stop stop-color="#0093B1"/>
<stop offset="0.42" stop-color="#0093B1"/>
<stop offset="1"/>
</linearGradient>
<clipPath id="clip0_1_10413">
<rect width="150" height="90" fill="white"/>
</clipPath>
</defs>
</svg>
